- - -
Synopsis
- - -

Ground-breaking documentary granting a unique and privileged access into the magical world of whales and dolphins, uncovering the secrets of their intimate lives as never before.

This episode explores the intimate details of the largest animals that have ever lived on our planet- the great whales. From the balmy waters of the Indian Ocean to the freezing seas of the Arctic, two daring underwater cameramen - Doug Allan, Planet Earth\'s polar specialist, and Didier Noirot, Cousteau\'s front-line cameraman - come face-to-face with fighting humpback whales and two-hundred-ton feeding blue whales.

Teaming up with top whale scientists, Giant Lives discovers why southern right whales possess a pair of one-ton testicles, why the arctic bowhead can live to over two hundred years old, and why size truly matters in the world of whales.


- - -
URL
- - -
  
http://www.bbc.co.uk/programmes/b013q50m


- - -
Technical Details
- - -
General
Complete name                    : BBC.Ocean.Giants.S01E01.Giant.Lives/Ocean_Giants_-_1._Giant_Lives_b013q50m_default.mp4
Format                           : MPEG-4
Format profile                   : Base Media
Codec ID                         : isom
File size                        : 1.01 GiB
Duration                         : 59mn 3s
Overall bit rate                 : 2 455 Kbps
Movie name                       : Ocean Giants: Giant Lives
Album                            : Ocean Giants
Track name/Position              : 1
Track name/Total                 : 0
Performer                        : Ocean Giants
Genre                            : Factual,Science & Nature
Recorded date                    : 2011-08-14T21:00:00+01:00
Writing application              : Lavf53.6.0
Cover                            : Yes
Comment                          : Recorded using get_iplayer, by Aularon.
rtng                             : 2
stik                             : 1
desc                             : Documentary granting a unique and privileged access into the magical world of whales and dolphins, uncovering the secrets of their intimate lives as never before.
tvnn                             : BBC One
tvsh                             : Ocean Giants
tven                             : b013q50m
catg                             : Factual,Science & Nature
tves                             : 1

Video
ID                               : 1
Format                           : AVC
Format/Info                      : Advanced Video Codec
Format profile                   : High@L4.1
Format settings, CABAC           : Yes
Format settings, ReFrames        : 6 frames
Codec ID                         : avc1
Codec ID/Info                    : Advanced Video Coding
Duration                         : 59mn 3s
Bit rate mode                    : Variable
Bit rate                         : 2 354 Kbps
Maximum bit rate                 : 3 500 Kbps
Width                            : 1 280 pixels
Height                           : 720 pixels
Display aspect ratio             : 16:9
Frame rate mode                  : Constant
Frame rate                       : 25.000 fps
Standard                         : PAL
Color space                      : YUV
Chroma subsampling               : 4:2:0
Bit depth                        : 8 bits
Scan type                        : Progressive
Bits/(Pixel*Frame)               : 0.102
Stream size                      : 994 MiB (96%)

Audio
ID                               : 2
Format                           : AAC
Format/Info                      : Advanced Audio Codec
Format profile                   : HE-AAC / LC
Codec ID                         : 40
Duration                         : 59mn 3s
Bit rate mode                    : Constant
Bit rate                         : 96.0 Kbps
Channel(s)                       : 2 channels
Channel positions                : Front: L R
Sampling rate                    : 48.0 KHz / 24.0 KHz
Compression mode                 : Lossy
Stream size                      : 40.0 MiB (4%)
